# File created by Blade
# Date/Time:  Wed Sep 24 20:21:23 2014
# Frame Rate: 120.000 fps
#------------------------------------------------------
:FULLY-SPECIFIED
:DEGREES
1303
root -2.832782 32.659307 -4.098720 11.827666 -0.488989 -1.512186
Spine -10.719772 5.941451 -0.961515
Head -4.624591 -17.540404 12.369920
LeftShoulder -6.112014 17.632022 10.550017
LeftArm 30.846833 38.932198 -69.842611
LeftForeArm -0.431251 0.000000 23.029725
LeftHand -25.757895 -0.000000 -1.059847
LeftHandThumb1 -26.253704 0.000000 33.147579
RightShoulder -17.725036 11.820065 -25.936632
RightArm 10.311809 -45.359090 82.918830
RightForeArm -28.043333 -0.000000 106.112501
RightHand -4.311724 -0.000000 -3.727848
RightHandThumb1 -24.326973 -0.000000 -32.862282
LeftUpLeg -6.338868 14.218931 0.376912
LeftLeg -0.710183 -0.000000 0.000000
LeftFoot -13.907370 8.715291 -16.046421
LeftToeBase 7.077274 -0.000000 -0.000000
RightUpLeg -8.814222 -3.230142 -0.686054
RightLeg 4.124078 -0.000000 -0.000000
RightFoot -11.194725 -5.859059 -5.246187
RightToeBase -1.138055 -0.000000 0.000000
1304
root -2.839803 32.659276 -4.074510 11.859409 -0.462349 -1.544592
Spine -10.820839 5.915071 -0.898966
Head -4.718784 -17.510769 12.257147
LeftShoulder -6.145785 17.621622 10.504279
LeftArm 30.794196 38.952220 -69.929761
LeftForeArm -0.438514 0.000000 23.025407
LeftHand -25.870171 -0.000000 -0.776405
LeftHandThumb1 -26.253704 0.000000 33.147579
RightShoulder -17.800643 11.517347 -25.780251
RightArm 9.378096 -46.284295 83.313251
RightForeArm -28.931595 0.000000 103.843701
RightHand -4.392463 0.000000 -2.500401
RightHandThumb1 -24.326973 -0.000000 -32.862282
LeftUpLeg -6.322012 14.251347 0.427941
LeftLeg -0.726437 -0.000000 0.000000
LeftFoot -13.904813 8.621002 -16.065952
LeftToeBase 7.098422 -0.000000 -0.000000
RightUpLeg -8.766269 -3.183753 -0.648532
RightLeg 4.058849 -0.000000 -0.000000
RightFoot -11.203054 -5.869174 -5.159761
RightToeBase -1.038917 -0.000000 0.000000
1305
root -2.841807 32.656775 -4.049600 11.863129 -0.443456 -1.512572
Spine -10.885327 5.808934 -0.886179
Head -4.788822 -17.394328 12.116877
LeftShoulder -6.242533 17.637940 10.453602
LeftArm 30.759895 38.956294 -70.002205
LeftForeArm -0.498514 -0.000000 23.025540
LeftHand -25.896297 -0.000000 -0.401717
LeftHandThumb1 -26.253704 0.000000 33.147579
RightShoulder -17.808526 11.252723 -25.600710
RightArm 8.352987 -47.056436 83.971965
RightForeArm -30.221661 -0.000000 101.442389
RightHand -4.338145 -0.000000 -1.586323
RightHandThumb1 -24.326973 -0.000000 -32.862282
LeftUpLeg -6.266430 14.249255 0.413360
LeftLeg -0.762094 -0.000000 0.000000
LeftFoot -13.897610 8.595371 -16.066518
LeftToeBase 7.085862 -0.000000 -0.000000
RightUpLeg -8.712333 -3.197488 -0.674940
RightLeg 4.036164 -0.000000 -0.000000
RightFoot -11.250827 -5.901521 -5.175349
RightToeBase -1.025360 -0.000000 0.000000
1306
root -2.848119 32.655972 -4.025986 11.894605 -0.406198 -1.535089
Spine -10.971887 5.747327 -0.820785
Head -4.896857 -17.341087 11.986137
LeftShoulder -6.330680 17.657778 10.400045
LeftArm 30.789096 38.996475 -70.026696
LeftForeArm -0.489328 -0.000000 22.996342
LeftHand -25.839960 -0.000000 -0.418130
LeftHandThumb1 -26.253704 0.000000 33.147579
RightShoulder -17.854130 11.024876 -25.406668
RightArm 7.352476 -47.971911 84.465992
RightForeArm -31.754052 -0.000000 99.140537
RightHand -4.785690 0.000000 -0.988717
RightHandThumb1 -24.326973 -0.000000 -32.862282
LeftUpLeg -6.246173 14.198664 0.458450
LeftLeg -0.781313 -0.000000 0.000000
LeftFoot -13.927732 8.605100 -16.108574
LeftToeBase 7.051373 -0.000000 -0.000000
RightUpLeg -8.667047 -3.141382 -0.644781
RightLeg 3.976523 -0.000000 -0.000000
RightFoot -11.217419 -5.991308 -5.192547
RightToeBase -1.120236 -0.000000 0.000000
